<?xml version="1.0" encoding="UTF-8"?>
<!DOCTYPE svg
  PUBLIC '-//W3C//DTD SVG 1.1//EN'
  'http://www.w3.org/Graphics/SVG/1.1/DTD/svg11.dtd'>
<svg version="1.1" xmlns="http://www.w3.org/2000/svg" width="37.350mm" height="23.822mm">
    <!--Autogenerated with python-barcode 0.14.0-->
    <g id="barcode_group">
        <rect width="100%" height="100%" style="fill:white"/>
        <rect x="3.000mm" y="1.000mm" width="0.330mm" height="15.000mm" style="fill:black;"/>
        <rect x="3.660mm" y="1.000mm" width="0.330mm" height="15.000mm" style="fill:black;"/>
        <rect x="4.980mm" y="1.000mm" width="0.660mm" height="15.000mm" style="fill:black;"/>
        <rect x="5.970mm" y="1.000mm" width="0.330mm" height="15.000mm" style="fill:black;"/>
        <rect x="7.290mm" y="1.000mm" width="0.330mm" height="15.000mm" style="fill:black;"/>
        <rect x="7.950mm" y="1.000mm" width="0.660mm" height="15.000mm" style="fill:black;"/>
        <rect x="8.940mm" y="1.000mm" width="0.990mm" height="15.000mm" style="fill:black;"/>
        <rect x="10.260mm" y="1.000mm" width="0.660mm" height="15.000mm" style="fill:black;"/>
        <rect x="11.250mm" y="1.000mm" width="0.660mm" height="15.000mm" style="fill:black;"/>
        <rect x="12.900mm" y="1.000mm" width="0.330mm" height="15.000mm" style="fill:black;"/>
        <rect x="13.890mm" y="1.000mm" width="0.660mm" height="15.000mm" style="fill:black;"/>
        <rect x="15.210mm" y="1.000mm" width="0.330mm" height="15.000mm" style="fill:black;"/>
        <rect x="16.530mm" y="1.000mm" width="0.660mm" height="15.000mm" style="fill:black;"/>
        <rect x="17.520mm" y="1.000mm" width="0.330mm" height="15.000mm" style="fill:black;"/>
        <rect x="18.180mm" y="1.000mm" width="0.330mm" height="15.000mm" style="fill:black;"/>
        <rect x="18.840mm" y="1.000mm" width="0.330mm" height="15.000mm" style="fill:black;"/>
        <rect x="19.500mm" y="1.000mm" width="0.660mm" height="15.000mm" style="fill:black;"/>
        <rect x="20.820mm" y="1.000mm" width="0.660mm" height="15.000mm" style="fill:black;"/>
        <rect x="21.810mm" y="1.000mm" width="0.330mm" height="15.000mm" style="fill:black;"/>
        <rect x="23.460mm" y="1.000mm" width="0.330mm" height="15.000mm" style="fill:black;"/>
        <rect x="24.120mm" y="1.000mm" width="0.330mm" height="15.000mm" style="fill:black;"/>
        <rect x="25.770mm" y="1.000mm" width="0.330mm" height="15.000mm" style="fill:black;"/>
        <rect x="26.430mm" y="1.000mm" width="0.990mm" height="15.000mm" style="fill:black;"/>
        <rect x="27.750mm" y="1.000mm" width="0.330mm" height="15.000mm" style="fill:black;"/>
        <rect x="28.740mm" y="1.000mm" width="0.660mm" height="15.000mm" style="fill:black;"/>
        <rect x="29.730mm" y="1.000mm" width="0.660mm" height="15.000mm" style="fill:black;"/>
        <rect x="31.050mm" y="1.000mm" width="0.660mm" height="15.000mm" style="fill:black;"/>
        <rect x="32.040mm" y="1.000mm" width="0.660mm" height="15.000mm" style="fill:black;"/>
        <rect x="33.360mm" y="1.000mm" width="0.330mm" height="15.000mm" style="fill:black;"/>
        <rect x="34.020mm" y="1.000mm" width="0.330mm" height="15.000mm" style="fill:black;"/>
        <text x="18.675mm" y="19.000mm" style="fill:black;font-size:8pt;text-anchor:middle;">097510133924</text>
        <text x="18.675mm" y="22.822mm" style="fill:black;font-size:8pt;text-anchor:middle;"> PHP 1999.00 Renz</text>
    </g>
</svg>
